<?xml version="1.0"?>
<svg xmlns="http://www.w3.org/2000/svg" viewBox="0 0 24 24" enable-background="new 0 0 24 24">
    <path style="text-indent:0;text-align:start;line-height:normal;text-transform:none;block-progression:tb;-inkscape-font-specification:Bitstream Vera Sans" d="M 6.21875 2 L 6.03125 2.75 C 6.03125 2.75 5 6.6849462 5 10 C 5 13.355828 7.5978891 16.393091 11 16.90625 L 11 20 L 7 20 L 7 22 L 17 22 L 17 20 L 13 20 L 13 16.90625 C 16.377416 16.416102 19 13.506094 19 10 C 19 6.4979798 17.96875 2.75 17.96875 2.75 L 17.75 2 L 17 2 L 7 2 L 6.21875 2 z M 7.8125 4 L 16.1875 4 C 16.320422 4.5445398 16.591107 5.6615887 16.78125 7 L 9 7 L 9 11 C 9 12.546425 9.6774168 13.901656 10.75 14.8125 C 8.6184236 14.203252 7 12.120806 7 10 C 7 7.5882159 7.5904367 4.9513003 7.8125 4 z" overflow="visible" enable-background="accumulate" font-family="Bitstream Vera Sans"/>
</svg>
