<?xml version="1.0"?>
<svg xmlns="http://www.w3.org/2000/svg" version="1" viewBox="0 0 24 24" enable-background="new 0 0 24 24">
    <path style="text-indent:0;text-align:start;line-height:normal;text-transform:none;block-progression:tb;-inkscape-font-specification:Bitstream Vera Sans" d="M 5.1875 2 L 5.375 4 L 2 4 L 2 5 L 2.90625 10 L 4.6875 10 L 4.1875 6 L 5.59375 6 L 6 10 L 7.8125 10 L 7.40625 4 L 9 4 L 9 13 C 9.5 13.4 10.2 13.80625 11 13.90625 L 11 5 L 13 5 L 13 13.90625 C 13.8 13.80625 14.5 13.4 15 13 L 15 4 L 16.59375 4 L 16.1875 10 L 18 10 L 18.40625 6 L 19.8125 6 L 19.3125 10 L 21.09375 10 L 22 5 L 22 4 L 18.625 4 L 18.8125 2 L 13 2 L 13 3 L 11 3 L 11 2 L 5.1875 2 z M 3 11 L 4.6875 20.40625 C 4.8875 21.40625 5.6875 22 6.6875 22 L 17.40625 22 C 18.40625 22 19.20625 21.30625 19.40625 20.40625 L 21 11 L 17 11 C 17 13.2 14.8 15 12 15 C 9.2 15 7 13.2 7 11 L 3 11 z" overflow="visible" enable-background="accumulate" font-family="Bitstream Vera Sans"/>
</svg>
