<?xml version="1.0"?>
<svg xmlns="http://www.w3.org/2000/svg" width="50" height="50" viewBox="0 0 50 50">
    <path d="M 18.90625 4 L 17.21875 7.125 C 16.85775 7.802 16.39675 8.35525 15.84375 8.78125 L 16 10.40625 C 16.278 14.57425 19.957 19 25 19 C 30.044 19 33.725 14.5735 34 10.4375 L 34.21875 8.84375 C 33.59575 8.40075 33.0545 7.84525 32.6875 7.15625 L 31.125 4 L 18.90625 4 z M 13.90625 9.65625 L 7.75 11.21875 C 5.334 11.85475 3.755 14.054 4 16.375 C 5.004 31.837 12.70325 44.948 13.03125 45.5 L 13.34375 46 L 36.59375 46 L 36.875 45.5 C 37.198 44.925 44.80025 31.21575 45.90625 16.34375 C 46.02825 14.01375 44.46225 11.85875 42.15625 11.21875 L 36.125 9.6875 L 36 10.625 C 35.672 15.594 31.163 21 25 21 C 18.837 21 14.336 15.6015 14 10.5625 L 13.90625 9.65625 z M 25 21.1875 L 28.59375 24.8125 L 25 30.3125 L 21.40625 24.8125 L 25 21.1875 z"/>
</svg>
