<?xml version="1.0" encoding="UTF-8"?>
<!DOCTYPE svg PUBLIC "-//W3C//DTD SVG 1.1//EN" "http://www.w3.org/Graphics/SVG/1.1/DTD/svg11.dtd">
<svg xmlns="http://www.w3.org/2000/svg" version="1.1" width="6096px" height="7620px" style="shape-rendering:geometricPrecision; text-rendering:geometricPrecision; image-rendering:optimizeQuality; fill-rule:evenodd; clip-rule:evenodd" xmlns:xlink="http://www.w3.org/1999/xlink">
<g><path style="opacity:0.053" fill="#fefefe" d="M -0.5,-0.5 C 2031.5,-0.5 4063.5,-0.5 6095.5,-0.5C 6095.5,2539.5 6095.5,5079.5 6095.5,7619.5C 4063.5,7619.5 2031.5,7619.5 -0.5,7619.5C -0.5,5079.5 -0.5,2539.5 -0.5,-0.5 Z"/></g>
<g><path style="opacity:1" fill="#e95f05" d="M 3943.5,1962.5 C 3941.65,1962.27 3940.81,1962.94 3941,1964.5C 3948.08,1973.65 3954.41,1983.32 3960,1993.5C 3963.93,2003.55 3961.43,2011.38 3952.5,2017C 3944.3,2018.87 3937.46,2016.7 3932,2010.5C 3929.04,2005.37 3925.87,2000.37 3922.5,1995.5C 3886.04,1940.03 3844.71,1888.36 3798.5,1840.5C 3752.15,1794.85 3696.82,1765.68 3632.5,1753C 3599.76,1747.15 3567.43,1748.81 3535.5,1758C 3504.08,1768.7 3475.74,1784.54 3450.5,1805.5C 3445.5,1808.02 3441.16,1811.52 3437.5,1816C 3425.32,1823.01 3416.49,1820.17 3411,1807.5C 3410.33,1804.17 3410.33,1800.83 3411,1797.5C 3412.6,1794.63 3414.43,1791.96 3416.5,1789.5C 3443.63,1766.75 3473.63,1748.25 3506.5,1734C 3547.12,1717.22 3589.12,1712.55 3632.5,1720C 3694.51,1731.35 3749.85,1756.68 3798.5,1796C 3850.69,1844.16 3896.19,1897.66 3935,1956.5C 3937.64,1958.89 3940.47,1960.89 3943.5,1962.5 Z"/></g>
<g><path style="opacity:1" fill="#f2540e" d="M 3922.5,1995.5 C 3920.95,1995.82 3920.29,1996.82 3920.5,1998.5C 3903.6,1973.73 3886.44,1949.06 3869,1924.5C 3837.83,1886.67 3803.33,1852.17 3765.5,1821C 3720.44,1786.48 3669.77,1764.48 3613.5,1755C 3564.03,1750.03 3518.69,1761.37 3477.5,1789C 3468.62,1795.27 3459.96,1801.77 3451.5,1808.5C 3451.74,1807.21 3451.4,1806.21 3450.5,1805.5C 3475.74,1784.54 3504.08,1768.7 3535.5,1758C 3567.43,1748.81 3599.76,1747.15 3632.5,1753C 3696.82,1765.68 3752.15,1794.85 3798.5,1840.5C 3844.71,1888.36 3886.04,1940.03 3922.5,1995.5 Z"/></g>
<g><path style="opacity:1" fill="#f0efef" d="M 3920.5,1998.5 C 3974.83,2087.83 4018.99,2182.17 4053,2281.5C 4069.15,2327.61 4083.48,2374.28 4096,2421.5C 4096.26,2423.65 4097.26,2425.32 4099,2426.5C 4233.04,2392.96 4367.04,2359.29 4501,2325.5C 4501.77,2325.64 4502.44,2325.98 4503,2326.5C 4660.52,2972.57 4818.02,3618.57 4975.5,4264.5C 4962.88,4268.01 4950.21,4271.84 4937.5,4276C 4450.06,4409.73 3962.73,4543.57 3475.5,4677.5C 3472.63,4674.42 3470.8,4670.75 3470,4666.5C 3316.6,4019.49 3162.93,3372.49 3009,2725.5C 3008.17,2721.53 3007.67,2717.53 3007.5,2713.5C 3085.69,2689.08 3163.86,2664.75 3242,2640.5C 3227.66,2572.12 3216.66,2503.12 3209,2433.5C 3202.18,2361.52 3201.85,2289.52 3208,2217.5C 3214.22,2149.62 3231.22,2084.62 3259,2022.5C 3282.23,1971.6 3316.73,1930.1 3362.5,1898C 3371.73,1892.22 3381.39,1887.22 3391.5,1883C 3399.88,1870.41 3408.38,1857.91 3417,1845.5C 3427.97,1832.69 3439.47,1820.36 3451.5,1808.5C 3459.96,1801.77 3468.62,1795.27 3477.5,1789C 3518.69,1761.37 3564.03,1750.03 3613.5,1755C 3669.77,1764.48 3720.44,1786.48 3765.5,1821C 3803.33,1852.17 3837.83,1886.67 3869,1924.5C 3886.44,1949.06 3903.6,1973.73 3920.5,1998.5 Z"/></g>
<g><path style="opacity:1" fill="#f24f04" d="M 3416.5,1789.5 C 3414.43,1791.96 3412.6,1794.63 3411,1797.5C 3410.33,1800.83 3410.33,1804.17 3411,1807.5C 3416.49,1820.17 3425.32,1823.01 3437.5,1816C 3441.16,1811.52 3445.5,1808.02 3450.5,1805.5C 3451.4,1806.21 3451.74,1807.21 3451.5,1808.5C 3439.47,1820.36 3427.97,1832.69 3417,1845.5C 3408.38,1857.91 3399.88,1870.41 3391.5,1883C 3381.39,1887.22 3371.73,1892.22 3362.5,1898C 3316.73,1930.1 3282.23,1971.6 3259,2022.5C 3231.22,2084.62 3214.22,2149.62 3208,2217.5C 3201.85,2289.52 3202.18,2361.52 3209,2433.5C 3216.66,2503.12 3227.66,2572.12 3242,2640.5C 3163.86,2664.75 3085.69,2689.08 3007.5,2713.5C 3003.94,2717.6 3001.11,2722.27 2999,2727.5C 2978.36,2772.61 2957.86,2817.77 2937.5,2863C 3081.26,3518.86 3224.93,4174.86 3368.5,4831C 3368.36,4831.77 3368.02,4832.44 3367.5,4833C 3368.44,4833.69 3369.1,4833.53 3369.5,4832.5C 3861.19,4702.16 4352.85,4571.33 4844.5,4440C 4846.29,4439.22 4847.79,4438.05 4849,4436.5C 4891.96,4379.42 4934.79,4322.26 4977.5,4265C 4976.91,4264.54 4976.24,4264.37 4975.5,4264.5C 4818.02,3618.57 4660.52,2972.57 4503,2326.5C 4502.44,2325.98 4501.77,2325.64 4501,2325.5C 4367.04,2359.29 4233.04,2392.96 4099,2426.5C 4097.26,2425.32 4096.26,2423.65 4096,2421.5C 4083.48,2374.28 4069.15,2327.61 4053,2281.5C 4018.99,2182.17 3974.83,2087.83 3920.5,1998.5C 3920.29,1996.82 3920.95,1995.82 3922.5,1995.5C 3925.87,2000.37 3929.04,2005.37 3932,2010.5C 3937.46,2016.7 3944.3,2018.87 3952.5,2017C 3961.43,2011.38 3963.93,2003.55 3960,1993.5C 3954.41,1983.32 3948.08,1973.65 3941,1964.5C 3940.81,1962.94 3941.65,1962.27 3943.5,1962.5C 4117.12,2049.65 4272.79,2161.82 4410.5,2299C 4436.37,2293.42 4462.37,2288.09 4488.5,2283C 4499.74,2280.75 4511.07,2280.08 4522.5,2281C 4532.75,2284.25 4540.25,2290.75 4545,2300.5C 4551.01,2316.86 4556.01,2333.52 4560,2350.5C 4571.58,2407.16 4584.58,2463.49 4599,2519.5C 4802.49,2802.28 4912.49,3118.61 4929,3468.5C 4932.87,3571.79 4927.7,3674.62 4913.5,3777C 4951.03,3933.67 4989.2,4090.17 5028,4246.5C 5028.83,4262.18 5024.83,4276.51 5016,4289.5C 4969.94,4360.92 4917.78,4427.75 4859.5,4490C 4852.78,4495.53 4845.11,4499.19 4836.5,4501C 4752.69,4525.6 4669.03,4550.6 4585.5,4576C 4407.99,4812.69 4186.66,4996.02 3921.5,5126C 3616.87,5271.99 3295.87,5332.99 2958.5,5309C 2633.91,5283.86 2336.24,5182.03 2065.5,5003.5C 2065.41,5002.5 2065.75,5001.67 2066.5,5001C 2215.39,4915.23 2372.06,4846.9 2536.5,4796C 2711.3,4741.7 2889.63,4704.03 3071.5,4683C 3039.95,4666.15 3007.28,4651.81 2973.5,4640C 2928.6,4624.25 2883.26,4609.92 2837.5,4597C 2795.88,4585.85 2754.21,4575.18 2712.5,4565C 2734.05,4554.73 2755.71,4544.73 2777.5,4535C 2820.3,4518.51 2863.97,4504.84 2908.5,4494C 2967.33,4479.39 3026.66,4467.06 3086.5,4457C 3109.47,4454.09 3132.47,4451.42 3155.5,4449C 3182.6,4446.52 3209.6,4447.19 3236.5,4451C 3242.95,4451.99 3249.12,4453.82 3255,4456.5C 3161.61,4015.54 3067.44,3574.71 2972.5,3134C 2927.63,3142.89 2883.63,3155.22 2840.5,3171C 2711.05,3217.73 2588.38,3277.73 2472.5,3351C 2372.5,3414.31 2278.17,3485.31 2189.5,3564C 2107.33,3643.14 2032.16,3727.97 1964,3818.5C 1820.2,4012.78 1694.37,4218.94 1586.5,4437C 1730.11,4449.3 1873.78,4461.3 2017.5,4473C 1833.76,4614.04 1679.59,4781.54 1555,4975.5C 1507.29,5054.91 1462.62,5136.24 1421,5219.5C 1367.76,5326.99 1316.42,5435.32 1267,5544.5C 1219.45,5650.68 1174.95,5758.01 1133.5,5866.5C 1133.5,5862.83 1133.5,5859.17 1133.5,5855.5C 1137.43,5827.75 1142.1,5800.09 1147.5,5772.5C 1149.41,5769.32 1150.08,5765.65 1149.5,5761.5C 1180.19,5580.05 1216.69,5399.72 1259,5220.5C 1305.73,5033.63 1363.73,4850.3 1433,4670.5C 1447.88,4632.91 1463.71,4595.75 1480.5,4559C 1441.27,4561.14 1402.11,4564.31 1363,4568.5C 1362.17,4568.17 1361.33,4567.83 1360.5,4567.5C 1378.07,4499.04 1402.9,4433.38 1435,4370.5C 1443.52,4355.99 1452.02,4341.49 1460.5,4327C 1301.03,4010.03 1242.2,3675.2 1284,3322.5C 1325.18,3011.1 1440.18,2731.1 1629,2482.5C 1840.85,2209.03 2108.35,2009.86 2431.5,1885C 2751.27,1765.49 3079.6,1733.66 3416.5,1789.5 Z"/></g>
<g><path style="opacity:1" fill="#f24f04" d="M 3573.5,1787.5 C 3607.56,1784.9 3640.23,1790.4 3671.5,1804C 3695.6,1814.21 3717.94,1827.21 3738.5,1843C 3791.35,1884.51 3836.52,1933.01 3874,1988.5C 3926.11,2066.7 3968.77,2150.04 4002,2238.5C 4026.48,2303.1 4047.64,2368.77 4065.5,2435.5C 4029.89,2443.61 3994.39,2452.28 3959,2461.5C 3958.5,2461.17 3958,2460.83 3957.5,2460.5C 3928.31,2364.78 3890.81,2272.45 3845,2183.5C 3812.62,2122.03 3774.28,2064.7 3730,2011.5C 3691.48,1966.87 3646.98,1929.71 3596.5,1900C 3548.7,1873.81 3497.7,1862.64 3443.5,1866.5C 3465.8,1836.36 3494.14,1813.86 3528.5,1799C 3543.27,1793.72 3558.27,1789.89 3573.5,1787.5 Z"/></g>
<g><path style="opacity:1" fill="#f24f04" d="M 3357.5,2285.5 C 3357.22,2277.32 3356.56,2269.32 3355.5,2261.5C 3353.23,2209.39 3354.57,2157.39 3359.5,2105.5C 3360.27,2104.74 3360.77,2103.74 3361,2102.5C 3361.5,2099.18 3361.67,2095.85 3361.5,2092.5C 3367.94,2027.9 3385.94,1966.73 3415.5,1909C 3440.07,1899.95 3465.4,1896.95 3491.5,1900C 3533.68,1906.1 3572.35,1921.1 3607.5,1945C 3660.71,1983.21 3706.21,2029.04 3744,2082.5C 3790.8,2149.09 3830.14,2220.09 3862,2295.5C 3886.43,2352.63 3907.6,2410.96 3925.5,2470.5C 3753.91,2512.56 3582.58,2555.23 3411.5,2598.5C 3389.04,2513.34 3372.54,2427.01 3362,2339.5C 3360.47,2321.5 3358.97,2303.5 3357.5,2285.5 Z"/></g>
<g><path style="opacity:1" fill="#f24f05" d="M 3364.5,1936.5 C 3365.24,1936.37 3365.91,1936.54 3366.5,1937C 3348.48,1981.56 3336.32,2027.73 3330,2075.5C 3322.01,2133.24 3319.35,2191.24 3322,2249.5C 3328.35,2369.77 3347.52,2487.93 3379.5,2604C 3379.25,2605.33 3378.58,2606.33 3377.5,2607C 3343.19,2615.66 3308.86,2624.16 3274.5,2632.5C 3262.08,2575.29 3252.24,2517.63 3245,2459.5C 3234.93,2376.94 3233.93,2294.27 3242,2211.5C 3248.1,2152.1 3263.1,2095.1 3287,2040.5C 3305.34,2000.12 3331.17,1965.45 3364.5,1936.5 Z"/></g>
<g><path style="opacity:1" fill="#f47a45" d="M 3361.5,2092.5 C 3361.67,2095.85 3361.5,2099.18 3361,2102.5C 3360.77,2103.74 3360.27,2104.74 3359.5,2105.5C 3359.77,2100.97 3360.44,2096.64 3361.5,2092.5 Z"/></g>
<g><path style="opacity:1" fill="#f2bfa7" d="M 3355.5,2261.5 C 3356.56,2269.32 3357.22,2277.32 3357.5,2285.5C 3355.84,2277.73 3355.18,2269.73 3355.5,2261.5 Z"/></g>
<g><path style="opacity:1" fill="#dbd8d9" d="M 3007.5,2713.5 C 3007.67,2717.53 3008.17,2721.53 3009,2725.5C 3162.93,3372.49 3316.6,4019.49 3470,4666.5C 3470.8,4670.75 3472.63,4674.42 3475.5,4677.5C 3439.44,4728.6 3404.11,4780.27 3369.5,4832.5C 3369.1,4833.53 3368.44,4833.69 3367.5,4833C 3368.02,4832.44 3368.36,4831.77 3368.5,4831C 3224.93,4174.86 3081.26,3518.86 2937.5,2863C 2957.86,2817.77 2978.36,2772.61 2999,2727.5C 3001.11,2722.27 3003.94,2717.6 3007.5,2713.5 Z"/></g>
<g><path style="opacity:1" fill="#f24f04" d="M 4354.5,2803.5 C 4371.51,2802.26 4385.35,2808.26 4396,2821.5C 4409.88,2840.92 4420.88,2861.92 4429,2884.5C 4438.19,2910.24 4445.03,2936.57 4449.5,2963.5C 4447.97,2996.25 4437.81,3025.92 4419,3052.5C 4413.42,3057.37 4406.92,3060.21 4399.5,3061C 4391.48,3061.56 4383.48,3061.39 4375.5,3060.5C 4371.34,3023.86 4362.17,2988.53 4348,2954.5C 4337.35,2933.86 4326.68,2913.2 4316,2892.5C 4303.15,2863.07 4307.65,2836.57 4329.5,2813C 4337.49,2808.51 4345.83,2805.34 4354.5,2803.5 Z"/></g>
<g><path style="opacity:1" fill="#f24f04" d="M 4071.5,2944.5 C 4117.95,2939.7 4160.95,2949.53 4200.5,2974C 4230.29,2991.33 4256.79,3012.83 4280,3038.5C 4313.79,3088.84 4334.79,3144.18 4343,3204.5C 4344.67,3232.45 4342.67,3260.12 4337,3287.5C 4324.23,3326.23 4306.23,3362.23 4283,3395.5C 4271.58,3411.35 4259.91,3427.01 4248,3442.5C 4212.97,3483.53 4175.8,3522.7 4136.5,3560C 4096.01,3595.58 4052.67,3627.24 4006.5,3655C 3984.83,3668.17 3962.83,3680.84 3940.5,3693C 3931.05,3701.78 3926.22,3712.61 3926,3725.5C 3919.07,3825.53 3922.4,3925.2 3936,4024.5C 3945.33,4055.38 3934.49,4074.21 3903.5,4081C 3896.28,4082.81 3888.95,4083.65 3881.5,4083.5C 3848.84,4083.5 3818.17,4075.67 3789.5,4060C 3768.19,4045.92 3754.36,4026.42 3748,4001.5C 3744.14,3987.68 3741.14,3973.68 3739,3959.5C 3730.43,3888.03 3728.1,3816.36 3732,3744.5C 3738.62,3638.2 3752.29,3532.87 3773,3428.5C 3783.39,3385.32 3797.39,3343.32 3815,3302.5C 3819.82,3292.18 3825.16,3282.18 3831,3272.5C 3840.43,3259.21 3853.26,3253.71 3869.5,3256C 3906.63,3264.07 3940.3,3279.41 3970.5,3302C 3979.59,3309.41 3986.76,3318.24 3992,3328.5C 3992.17,3330.17 3992.33,3331.83 3992.5,3333.5C 3982.31,3371.63 3972.81,3409.96 3964,3448.5C 3960.75,3459.67 3959.58,3471 3960.5,3482.5C 3963.97,3480.19 3967.31,3477.69 3970.5,3475C 3975.94,3473.11 3980.94,3470.45 3985.5,3467C 4022.97,3439.58 4058.97,3410.25 4093.5,3379C 4117.81,3351.03 4140.97,3322.2 4163,3292.5C 4171.13,3281.03 4178.46,3269.03 4185,3256.5C 4192.99,3238.23 4195.65,3219.23 4193,3199.5C 4188.8,3185.97 4180.3,3176.14 4167.5,3170C 4143.92,3161.63 4119.59,3157.63 4094.5,3158C 4047.27,3154.02 4000.93,3158.69 3955.5,3172C 3914.29,3184.29 3874.62,3200.29 3836.5,3220C 3767.72,3262.12 3717.55,3320.28 3686,3394.5C 3685.11,3395.08 3684.11,3395.41 3683,3395.5C 3657.2,3385.71 3635.2,3370.37 3617,3349.5C 3603.12,3334.75 3591.46,3318.42 3582,3300.5C 3575.98,3288.05 3573.14,3274.88 3573.5,3261C 3573.5,3242.33 3577.33,3224.5 3585,3207.5C 3605.65,3166.5 3633.48,3131 3668.5,3101C 3762.84,3021.68 3871.17,2971.68 3993.5,2951C 4019.56,2947.75 4045.56,2945.58 4071.5,2944.5 Z"/></g>
<g><path style="opacity:1" fill="#f8f7f7" d="M 2065.5,5003.5 C 2063.93,5002.53 2062.27,5002.36 2060.5,5003C 1992.32,5044.27 1926.99,5089.77 1864.5,5139.5C 1712.1,5261.71 1566.93,5392.38 1429,5531.5C 1353.16,5611 1279.83,5692.67 1209,5776.5C 1182.82,5808.16 1157.32,5840.16 1132.5,5872.5C 1132.83,5870.5 1133.17,5868.5 1133.5,5866.5C 1174.95,5758.01 1219.45,5650.68 1267,5544.5C 1316.42,5435.32 1367.76,5326.99 1421,5219.5C 1462.62,5136.24 1507.29,5054.91 1555,4975.5C 1679.59,4781.54 1833.76,4614.04 2017.5,4473C 1873.78,4461.3 1730.11,4449.3 1586.5,4437C 1694.37,4218.94 1820.2,4012.78 1964,3818.5C 2032.16,3727.97 2107.33,3643.14 2189.5,3564C 2278.17,3485.31 2372.5,3414.31 2472.5,3351C 2588.38,3277.73 2711.05,3217.73 2840.5,3171C 2883.63,3155.22 2927.63,3142.89 2972.5,3134C 3067.44,3574.71 3161.61,4015.54 3255,4456.5C 3249.12,4453.82 3242.95,4451.99 3236.5,4451C 3209.6,4447.19 3182.6,4446.52 3155.5,4449C 3132.47,4451.42 3109.47,4454.09 3086.5,4457C 3026.66,4467.06 2967.33,4479.39 2908.5,4494C 2863.97,4504.84 2820.3,4518.51 2777.5,4535C 2755.71,4544.73 2734.05,4554.73 2712.5,4565C 2754.21,4575.18 2795.88,4585.85 2837.5,4597C 2883.26,4609.92 2928.6,4624.25 2973.5,4640C 3007.28,4651.81 3039.95,4666.15 3071.5,4683C 2889.63,4704.03 2711.3,4741.7 2536.5,4796C 2372.06,4846.9 2215.39,4915.23 2066.5,5001C 2065.75,5001.67 2065.41,5002.5 2065.5,5003.5 Z"/></g>
<g><path style="opacity:1" fill="#e7e4e5" d="M 4975.5,4264.5 C 4976.24,4264.37 4976.91,4264.54 4977.5,4265C 4934.79,4322.26 4891.96,4379.42 4849,4436.5C 4847.79,4438.05 4846.29,4439.22 4844.5,4440C 4352.85,4571.33 3861.19,4702.16 3369.5,4832.5C 3404.11,4780.27 3439.44,4728.6 3475.5,4677.5C 3962.73,4543.57 4450.06,4409.73 4937.5,4276C 4950.21,4271.84 4962.88,4268.01 4975.5,4264.5 Z"/></g>
<g><path style="opacity:1" fill="#f77c45" d="M 1149.5,5761.5 C 1150.08,5765.65 1149.41,5769.32 1147.5,5772.5C 1147.81,5768.64 1148.48,5764.97 1149.5,5761.5 Z"/></g>
<g><path style="opacity:1" fill="#f78551" d="M 1133.5,5855.5 C 1133.5,5859.17 1133.5,5862.83 1133.5,5866.5C 1133.17,5868.5 1132.83,5870.5 1132.5,5872.5C 1131.3,5866.78 1131.64,5861.11 1133.5,5855.5 Z"/></g>
</svg>
