<?xml version="1.0"?>
<svg xmlns="http://www.w3.org/2000/svg" viewBox="0 0 50 50">
    <path d="M47.392,10.244l-0.508-1.542l-8.125,8.124L34.77,15.23l-1.596-3.99l8.124-8.125l-1.542-0.508C38.532,2.205,37.269,2,36,2 c-6.617,0-12,5.383-12,12c0,1.479,0.271,2.925,0.807,4.307L3.426,39.688C2.506,40.607,2,41.83,2,43.131s0.506,2.523,1.426,3.443 c0.949,0.949,2.196,1.424,3.443,1.424s2.494-0.475,3.443-1.424l21.381-21.38C33.074,25.729,34.521,26,36,26c6.617,0,12-5.383,12-12 C48,12.731,47.796,11.467,47.392,10.244z"/>
</svg>
