<?xml version="1.0"?>
<svg xmlns="http://www.w3.org/2000/svg" width="50" height="50" viewBox="0 0 50 50">
    <path d="M 30.5 11.09375 C 30.24425 11.09375 29.97675 11.21075 29.78125 11.40625 L 24.28125 16.90625 C 23.89025 17.29725 23.89025 17.9215 24.28125 18.3125 C 24.47625 18.5075 24.744 18.59375 25 18.59375 C 25.256 18.59375 25.52375 18.5075 25.71875 18.3125 L 27.75 16.28125 L 31.375 19.90625 C 29.787182 20.903564 27.118786 22.03125 23 22.03125 C 16.640438 22.03125 13.740052 19.413213 13 18.625 L 13 17.6875 C 13 16.3915 12.6385 15.20725 11.9375 14.15625 L 10.84375 12.46875 C 10.54375 12.00675 9.93375 11.85625 9.46875 12.15625 C 9.00575 12.45625 8.85625 13.06725 9.15625 13.53125 L 10.28125 15.25 C 10.77425 15.988 11 16.7805 11 17.6875 L 11 18.03125 L 5.3125 18.03125 C 3.4715 18.03125 2.03125 19.4705 2.03125 21.3125 L 2.03125 26.125 C 2.38225 26.044 2.72275 26 3.09375 26 L 3.8125 26 L 4.40625 26 C 5.78525 24.723 7.597 24 9.5 24 C 11.403 24 13.21575 24.723 14.59375 26 L 35.40625 26 C 36.78525 24.723 38.597 24 40.5 24 C 42.403 24 44.21475 24.723 45.59375 26 L 46.8125 26 C 47.0465 26 47.273 26.0315 47.5 26.0625 C 45.196 21.5315 35.51425 18.4425 34.28125 18.0625 C 33.89325 17.9425 33.46975 18.08225 33.21875 18.40625 C 33.214442 18.411788 33.113172 18.508769 32.96875 18.65625 L 29.1875 14.875 L 31.21875 12.8125 C 31.60975 12.4215 31.60975 11.79725 31.21875 11.40625 C 31.02325 11.21075 30.75575 11.09375 30.5 11.09375 z M 9.5 26 C 7.796 26 6.26 26.779 5.25 28 L 3.8125 28 L 3.09375 28 C 1.41275 28 2.9605947e-16 29.4535 0 31.1875 L 0 31.90625 C 0 33.55825 1.44275 35 3.09375 35 L 3.8125 35 L 5.25 35 C 6.26 36.221 7.796 37 9.5 37 C 11.204 37 12.74 36.221 13.75 35 L 36.25 35 C 37.26 36.221 38.796 37 40.5 37 C 42.204 37 43.74 36.221 44.75 35 L 45.21875 35 C 45.36975 35 45.52725 34.96725 45.65625 34.90625 L 46.8125 34.90625 C 48.5225 34.90625 49.90625 33.5225 49.90625 31.8125 L 49.90625 31.09375 C 49.90525 29.38575 48.5225 28 46.8125 28 L 45.21875 28 L 44.75 28 C 43.74 26.779 42.204 26 40.5 26 C 38.796 26 37.26 26.779 36.25 28 L 13.75 28 C 12.74 26.779 11.204 26 9.5 26 z M 9.5 28 C 11.43 28 13 29.57 13 31.5 C 13 33.43 11.43 35 9.5 35 C 7.57 35 6 33.43 6 31.5 C 6 29.57 7.57 28 9.5 28 z M 40.5 28 C 42.43 28 44 29.57 44 31.5 C 44 33.43 42.43 35 40.5 35 C 38.57 35 37 33.43 37 31.5 C 37 29.57 38.57 28 40.5 28 z"/>
</svg>
